<svg xmlns="http://www.w3.org/2000/svg" width="24" height="24" viewBox="0 0 24 24" fill="none" stroke="currentColor" stroke-width="2" stroke-linecap="round" stroke-linejoin="round" class="lucide lucide-puzzle">
  <path d="M19.439 7.85c-.049.322.059.648.289.878l1.568 1.568c.47.47.706 1.087.706 1.704s-.235 1.233-.706 1.704l-1.611 1.611a.98.98 0 0 1-.837.276c-.47-.07-.802-.48-.743-.953l.093-.71c.056-.429-.165-.839-.55-1.025a3.3 3.3 0 0 0-1.178-.318c-.65-.047-1.315.144-1.767.59-1.07 1.062-2.148 2.133-3.22 3.194-.334.33-.328.96 0 1.3.32.33 1.592.667 1.92.336" />
  <path d="M12 2.55c.32-.333.829-.39 1.088-.027 1.448 2.023 3.52 2.507 4.342 3.328.837.837 1.318 2.902 3.328 4.342.356.254.309.762-.027 1.087-.32.312-.651.615-.985.915-.343.312-.857.346-1.229.079-.46-.33-1.077-.388-1.572-.097-.7.417-1.056 1.142-1.152 1.388-.102.261-.062.558.02.933l.17.77c.046.202-.026.407-.185.55-.51.456-1.88 1.913-2.359 2.39a1.14 1.14 0 0 1-1.614 0c-1.04-1.04-2.083-2.083-3.125-3.125a1.14 1.14 0 0 1 0-1.614c.448-.448 1.886-1.788 2.39-2.36.144-.16.348-.23.55-.185l.772.169c.3.066.57.086.778.05.389-.071 1.157-.466 1.542-1.15.29-.495.232-1.111-.096-1.573-.267-.372-.234-.886.078-1.229.3-.334.604-.666.916-.985Z" />
</svg>